/* XPM */
static char * icon16_model_xpm[] = {
"16 16 143 2",
"  	c None",
". 	c #71655F",
"+ 	c #A47967",
"@ 	c #A87D69",
"# 	c #826E64",
"$ 	c #5A5A5A",
"% 	c #363230",
"& 	c #A18071",
"* 	c #D69375",
"= 	c #F39871",
"- 	c #F49368",
"; 	c #E4865D",
"> 	c #B67355",
", 	c #836254",
"' 	c #5D5D5D",
") 	c #625048",
"! 	c #E09677",
"~ 	c #F4AE90",
"{ 	c #FAA27C",
"] 	c #FCA17A",
"^ 	c #F7976F",
"/ 	c #EEA186",
"( 	c #E05024",
"_ 	c #484848",
": 	c #8D897D",
"< 	c #806B56",
"[ 	c #C86535",
"} 	c #D25B26",
"| 	c #E28159",
"1 	c #F1B39C",
"2 	c #CD522D",
"3 	c #CE2F03",
"4 	c #E93600",
"5 	c #474747",
"6 	c #464645",
"7 	c #97948A",
"8 	c #B7B19D",
"9 	c #DED5B2",
"0 	c #E3D3A7",
"a 	c #E2BA87",
"b 	c #CF8E5B",
"c 	c #D26937",
"d 	c #EA8764",
"e 	c #BD2E0B",
"f 	c #C65646",
"g 	c #CF6A62",
"h 	c #4D4B57",
"i 	c #555555",
"j 	c #5C5A50",
"k 	c #D1C8A6",
"l 	c #F4F1E5",
"m 	c #F7EECA",
"n 	c #F5E8B9",
"o 	c #F5E9BC",
"p 	c #F5E2C2",
"q 	c #E4B985",
"r 	c #D9765C",
"s 	c #B58699",
"t 	c #B09CC2",
"u 	c #AA9CCA",
"v 	c #908BB9",
"w 	c #817CA2",
"x 	c #69677B",
"y 	c #5D5D60",
"z 	c #676250",
"A 	c #EED67F",
"B 	c #EDD47D",
"C 	c #E7DBAE",
"D 	c #F8F4E7",
"E 	c #EED29E",
"F 	c #D29F33",
"G 	c #AC8628",
"H 	c #A088B7",
"I 	c #BAB2D7",
"J 	c #AEA6D2",
"K 	c #ACA5D2",
"L 	c #ACA7D4",
"M 	c #ADAACF",
"N 	c #7C7AB1",
"O 	c #494857",
"P 	c #666150",
"Q 	c #EBD177",
"R 	c #F1E0B1",
"S 	c #D7A32D",
"T 	c #C39423",
"U 	c #8B6F28",
"V 	c #8078C1",
"W 	c #7F76C0",
"X 	c #9080B9",
"Y 	c #B4ACCF",
"Z 	c #8C8AB9",
"` 	c #47458E",
" .	c #4F4B9C",
"..	c #484758",
"+.	c #F0DDA8",
"@.	c #D49D1C",
"#.	c #C59A30",
"$.	c #7B652A",
"%.	c #7A72BE",
"&.	c #A19CD1",
"*.	c #383689",
"=.	c #474594",
"-.	c #5651A6",
";.	c #49485A",
">.	c #ECD47D",
",.	c #F0DEAB",
"'.	c #D8A52A",
").	c #C59E3C",
"!.	c #816C34",
"~.	c #7972BE",
"{.	c #A39ED2",
"].	c #3F3C8D",
"^.	c #4F4C9C",
"/.	c #5E59AD",
"(.	c #4B4A5B",
"_.	c #757470",
":.	c #7E7557",
"<.	c #BBAA6B",
"[.	c #D6BF71",
"}.	c #EDDCAD",
"|.	c #CEA439",
"1.	c #B49B55",
"2.	c #554E3A",
"3.	c #7871B0",
"4.	c #7C74B9",
"5.	c #494794",
"6.	c #5752A5",
"7.	c #645EA8",
"8.	c #4E4D5D",
"9.	c #827858",
"0.	c #B4AB93",
"a.	c #8D7B4D",
"b.	c #8F8C83",
"c.	c #7E7E7E",
"d.	c #605D70",
"e.	c #736F90",
"f.	c #6B669C",
"g.	c #9D98C6",
"h.	c #4F4B91",
"i.	c #636094",
"j.	c #686682",
"k.	c #848293",
"l.	c #64627B",
"                                ",
"                                ",
"            . + @ # $           ",
"        % & * = - ; > , '       ",
"        ) ! ~ { ] ^ / ( _       ",
"      : < [ } | 1 2 3 4 5       ",
"6 7 8 9 0 a b c d e f g h i     ",
"j k l m n o p q r s t u v w x y ",
"z A B C D E F G H I J K L M N O ",
"P A B Q R S T U V W X Y Z `  ...",
"P A B Q +.@.#.$.V W %.&.*.=.-.;.",
"z A >.Q ,.'.).!.V W ~.{.].^./.(.",
"_.:.<.[.}.|.1.2.3.4.~.{.5.6.7.8.",
"      9.0.a.b.c.d.e.f.g.h.i.j.  ",
"                      k.l.      ",
"                                "};
