/* XPM */
static char * icon16_texture_xpm[] = {
"16 16 83 1",
" 	c None",
".	c #000000",
"+	c #475E3A",
"@	c #2D5723",
"#	c #276122",
"$	c #375427",
"%	c #475D3B",
"&	c #44672E",
"*	c #395627",
"=	c #2D5722",
"-	c #286122",
";	c #385529",
">	c #485D3B",
",	c #5F8B35",
"'	c #679B45",
")	c #517B37",
"!	c #44662E",
"~	c #395527",
"{	c #2D5823",
"]	c #276123",
"^	c #39562A",
"/	c #475F3C",
"(	c #49661C",
"_	c #577C26",
":	c #5F8C35",
"<	c #679C45",
"[	c #517937",
"}	c #385526",
"|	c #2C5822",
"1	c #3A572C",
"2	c #273522",
"3	c #1D2917",
"4	c #334719",
"5	c #5F8C36",
"6	c #689C45",
"7	c #507837",
"8	c #43652E",
"9	c #385527",
"0	c #423933",
"a	c #3D3D30",
"b	c #1E2A17",
"c	c #334819",
"d	c #49671C",
"e	c #577D26",
"f	c #608D36",
"g	c #507836",
"h	c #6DA553",
"i	c #618549",
"j	c #4D4F3A",
"k	c #423932",
"l	c #3C3D30",
"m	c #263521",
"n	c #1E2A16",
"o	c #344919",
"p	c #4A671D",
"q	c #587D27",
"r	c #56664E",
"s	c #648156",
"t	c #618449",
"u	c #4D4D3A",
"v	c #3D3E30",
"w	c #253421",
"x	c #1F2B17",
"y	c #276222",
"z	c #3C572D",
"A	c #495F3E",
"B	c #57674F",
"C	c #638156",
"D	c #6DA654",
"E	c #608349",
"F	c #4D4C39",
"G	c #3C3E30",
"H	c #2B5A23",
"I	c #266322",
"J	c #3C582E",
"K	c #57664F",
"L	c #648356",
"M	c #5F8248",
"N	c #4D4A39",
"O	c #3D582F",
"P	c #4A603F",
"Q	c #2B5A22",
"R	c #266323",
"     ..         ",
"     .+..       ",
"    .@#$%..     ",
"    .&*=-;>..   ",
"   .,')!~{]^/.. ",
"   .(_:<[!}|#1. ",
"  .234(_56789.  ",
"  .0a2bcdef'g.  ",
" .hijklmnopq.   ",
" .rshtukvwxo.   ",
".yzABCDEF0G.    ",
"..HIJAKLDMN.    ",
"  ..HyOPBL.     ",
"    ..QROP.     ",
"      ..Q.      ",
"        ..      "};
