/* XPM */
static char * icon16_material_xpm[] = {
"16 16 120 2",
"  	c None",
". 	c #4A4A49",
"+ 	c #867F67",
"@ 	c #857D61",
"# 	c #847B5E",
"$ 	c #20201E",
"% 	c #61686E",
"& 	c #4F5962",
"* 	c #4D5760",
"= 	c #21262A",
"- 	c #6D5956",
"; 	c #804C40",
"> 	c #653930",
", 	c #000000",
"' 	c #F0DC92",
") 	c #EFD989",
"! 	c #E8D284",
"~ 	c #31322E",
"{ 	c #7C91A3",
"] 	c #526B81",
"^ 	c #546F85",
"/ 	c #25313B",
"( 	c #C17665",
"_ 	c #E14F2E",
": 	c #B03D23",
"< 	c #EED680",
"[ 	c #E6CF7C",
"} 	c #2F302B",
"| 	c #667481",
"1 	c #545556",
"2 	c #293A48",
"3 	c #1D2934",
"4 	c #BF6C58",
"5 	c #DF421E",
"6 	c #AE3317",
"7 	c #817A5E",
"8 	c #E4CF83",
"9 	c #E2CB79",
"0 	c #D9C375",
"a 	c #2C2E2A",
"b 	c #616A73",
"c 	c #C6C3C2",
"d 	c #0F161B",
"e 	c #1A242D",
"f 	c #BA6451",
"g 	c #D53E1C",
"h 	c #D53F1C",
"i 	c #A52F12",
"j 	c #0E0D0A",
"k 	c #19160E",
"l 	c #18160D",
"m 	c #17150D",
"n 	c #050505",
"o 	c #232323",
"p 	c #C5BEB8",
"q 	c #0C0C0C",
"r 	c #020304",
"s 	c #110907",
"t 	c #160603",
"u 	c #170703",
"v 	c #120502",
"w 	c #292727",
"x 	c #C7BEB6",
"y 	c #65625F",
"z 	c #3B3B3B",
"A 	c #545353",
"B 	c #060505",
"C 	c #2A2A2A",
"D 	c #9C9A98",
"E 	c #D9D1C7",
"F 	c #B1A9A2",
"G 	c #A29E9C",
"H 	c #CCCAC8",
"I 	c #625D59",
"J 	c #303030",
"K 	c #2E2D2D",
"L 	c #C4C1BC",
"M 	c #DCD1C3",
"N 	c #AFA9A1",
"O 	c #C8C1B9",
"P 	c #D6D2CB",
"Q 	c #918E89",
"R 	c #363231",
"S 	c #2D2B2B",
"T 	c #D1CAC3",
"U 	c #DACBBC",
"V 	c #D5C8BA",
"W 	c #DCD0C2",
"X 	c #D5C9BD",
"Y 	c #BCB1A7",
"Z 	c #342E2B",
"` 	c #272524",
" .	c #A5A09C",
"..	c #B4A99D",
"+.	c #BFB3A5",
"@.	c #BCAFA0",
"#.	c #BAAD9F",
"$.	c #827A71",
"%.	c #23201D",
"&.	c #2F2B29",
"*.	c #5D5854",
"=.	c #817970",
"-.	c #82786F",
";.	c #7A726A",
">.	c #302C2A",
",.	c #010000",
"'.	c #1A1615",
").	c #2B2321",
"!.	c #2A2220",
"~.	c #201D1C",
"{.	c #1A1817",
"].	c #817B7A",
"^.	c #A39C9B",
"/.	c #A39D9B",
"(.	c #ABA9A6",
"_.	c #7A7977",
":.	c #080303",
"<.	c #070403",
"[.	c #090606",
"}.	c #060504",
"                                ",
"  . + @ # $ % & * = - ; ; > ,   ",
"  + ' ) ! ~ { ] ^ / ( _ _ : ,   ",
"  @ ) < [ } | 1 2 3 4 5 5 6 ,   ",
"  7 8 9 0 a b c d e f g h i ,   ",
"  j k l m n o p q r s t u v     ",
"            w x y z A B         ",
"          C D E F G H I J       ",
"          K L M N O P Q R       ",
"          S T U V W X Y Z       ",
"          `  ...+.@.#.$.%.      ",
"            &.*.=.-.;.>.,.      ",
"              '.).!.~.{.        ",
"              ].^./.(._.        ",
"              :.<.[.}.,         ",
"                                "};
