/* XPM */
static char * icon16_plugins_xpm[] = {
"16 16 115 2",
"  	c None",
". 	c #98AAB5",
"+ 	c #96AAB7",
"@ 	c #93AEC3",
"# 	c #7896B0",
"$ 	c #273440",
"% 	c #A2B0B8",
"& 	c #AAB9C2",
"* 	c #A7BECB",
"= 	c #6D8496",
"- 	c #849098",
"; 	c #8BAAC1",
"> 	c #779AB8",
", 	c #7296B5",
"' 	c #688AAB",
") 	c #283645",
"! 	c #A3BCCC",
"~ 	c #89ABC2",
"{ 	c #84A7BF",
"] 	c #4D6478",
"^ 	c #6F7578",
"/ 	c #84A4BB",
"( 	c #7397B5",
"_ 	c #7093B3",
": 	c #6A8EAE",
"< 	c #2F4054",
"[ 	c #B2C4D0",
"} 	c #87A9C2",
"| 	c #83A6BF",
"1 	c #799BB5",
"2 	c #6D8BA3",
"3 	c #87A4BA",
"4 	c #7498B6",
"5 	c #6E92B1",
"6 	c #435C76",
"7 	c #394D67",
"8 	c #253242",
"9 	c #B0BEC7",
"0 	c #88AAC2",
"a 	c #7FA3BD",
"b 	c #7DA0BB",
"c 	c #7B9EBA",
"d 	c #7599B7",
"e 	c #7195B4",
"f 	c #6283A3",
"g 	c #121921",
"h 	c #B0BAC0",
"i 	c #9EB9CA",
"j 	c #97B5C8",
"k 	c #82A4BE",
"l 	c #7DA1BC",
"m 	c #7A9DB9",
"n 	c #769AB7",
"o 	c #6E92B2",
"p 	c #6487A7",
"q 	c #263241",
"r 	c #576777",
"s 	c #9FB2BD",
"t 	c #85A9C1",
"u 	c #81A4BF",
"v 	c #7EA2BC",
"w 	c #6F92B3",
"x 	c #6B90B0",
"y 	c #678BAD",
"z 	c #708FAE",
"A 	c #7B97B3",
"B 	c #567396",
"C 	c #222F3E",
"D 	c #6F7579",
"E 	c #7B95AA",
"F 	c #516677",
"G 	c #92B0C6",
"H 	c #789CB8",
"I 	c #7398B6",
"J 	c #6C90B1",
"K 	c #678CAD",
"L 	c #6588AB",
"M 	c #6083A8",
"N 	c #5D80A6",
"O 	c #527198",
"P 	c #253447",
"Q 	c #303335",
"R 	c #ACC0CF",
"S 	c #678AAA",
"T 	c #4B6582",
"U 	c #485F7A",
"V 	c #7695B2",
"W 	c #5A7CA2",
"X 	c #57789F",
"Y 	c #2D3F56",
"Z 	c #A0B3C0",
"` 	c #7295B5",
" .	c #4F6B8A",
"..	c #06080A",
"+.	c #161718",
"@.	c #8397A7",
"#.	c #5A7CA3",
"$.	c #54749A",
"%.	c #517196",
"&.	c #334863",
"*.	c #B4C0C7",
"=.	c #6D91B1",
"-.	c #688CAD",
";.	c #59799B",
">.	c #243141",
",.	c #708396",
"'.	c #334761",
").	c #28384D",
"!.	c #202C3C",
"~.	c #0F151C",
"{.	c #89949C",
"].	c #455D77",
"^.	c #33465B",
"/.	c #283646",
"(.	c #0E1216",
"                                ",
"                                ",
"                  . + @ # $     ",
"      % & * =   - ; > , ' )     ",
"      ! ~ { ]   ^ / ( _ : <     ",
"      [ } | 1 2 3 4 5 6 7 8     ",
"      9 0 a b c d e f g         ",
"  h i j k l m n , o p q   r     ",
"  s t u v m > , w x y z A B C   ",
"  D E F G H I _ J K L M N O P   ",
"      Q R 4 e S T U V N W X Y   ",
"        Z ` o  ...+.@.#.$.%.&.  ",
"        *.=.-.;.>.  ,.'.).!.~.  ",
"        {.].^./.(.              ",
"                                ",
"                                "};
